<svg width="21" height="19" viewBox="0 0 21 19" fill="none" xmlns="http://www.w3.org/2000/svg">
<path d="M1.26222 10.5045C1.34814 10.5184 1.4351 10.5249 1.52211 10.5238L16.3372 10.5238L16.0141 10.6744C15.6984 10.8242 15.4111 11.0281 15.1652 11.2769L11.0107 15.4415C10.4635 15.9651 10.3716 16.8074 10.7928 17.4373C11.2831 18.1084 12.2232 18.2541 12.8928 17.7627C12.9469 17.723 12.9983 17.6797 13.0466 17.6331L20.5593 10.102C21.1464 9.51412 21.147 8.56046 20.5605 7.97191C20.5601 7.97153 20.5597 7.97111 20.5593 7.97073L13.0466 0.43968C12.459 -0.147694 11.5077 -0.146378 10.9217 0.442646C10.8756 0.489008 10.8325 0.538336 10.7928 0.590302C10.3716 1.22013 10.4635 2.06243 11.0107 2.58603L15.1577 6.75823C15.3781 6.97946 15.6316 7.16495 15.909 7.308L16.3597 7.51134L1.6048 7.51134C0.837233 7.48277 0.163813 8.02025 0.0196152 8.77655C-0.113218 9.59767 0.443098 10.3713 1.26222 10.5045Z" fill="#DC7000"/>
</svg>
